<svg width="28" height="36" viewBox="0 0 28 36" fill="none" xmlns="http://www.w3.org/2000/svg">
<path d="M6.125 3.375C5.50625 3.375 5 3.88125 5 4.5V31.5C5 32.1188 5.50625 32.625 6.125 32.625H21.875C22.4937 32.625 23 32.1188 23 31.5V4.5C23 3.88125 22.4937 3.375 21.875 3.375H6.125ZM1.625 4.5C1.625 2.01797 3.64297 0 6.125 0H21.875C24.357 0 26.375 2.01797 26.375 4.5V31.5C26.375 33.982 24.357 36 21.875 36H6.125C3.64297 36 1.625 33.982 1.625 31.5V4.5ZM11.75 28.125H16.25C16.8687 28.125 17.375 28.6313 17.375 29.25C17.375 29.8687 16.8687 30.375 16.25 30.375H11.75C11.1313 30.375 10.625 29.8687 10.625 29.25C10.625 28.6313 11.1313 28.125 11.75 28.125Z" fill="#1E40AF"/>
</svg>
