<svg width="45" height="36" viewBox="0 0 45 36" fill="none" xmlns="http://www.w3.org/2000/svg">
<path d="M24.9539 8.55703C25.9242 9.68203 27.5203 10.0406 28.8844 9.43594C29.5102 9.16172 30.1992 9 30.9375 9C33.7359 9 36 11.2641 36 14.0625C36 14.3438 35.9789 14.618 35.9367 14.8852C35.6906 16.4039 36.5063 17.9016 37.9125 18.5203C40.1063 19.4695 41.625 21.6562 41.625 24.1875C41.625 27.4781 39.0516 30.1781 35.8031 30.3609C35.7609 30.3609 35.7117 30.368 35.6695 30.375H35.4375H10.125C6.39844 30.375 3.375 27.3516 3.375 23.625C3.375 20.693 5.24531 18.1898 7.875 17.2617C9.225 16.7836 10.125 15.5109 10.125 14.0766V14.0625C10.125 9.40078 13.9008 5.625 18.5625 5.625C21.1148 5.625 23.4 6.75703 24.9539 8.55703ZM36 33.75V33.7359C41.0203 33.4477 45 29.2852 45 24.1875C45 20.2711 42.6445 16.8961 39.2695 15.4195C39.3398 14.9766 39.375 14.5195 39.375 14.0625C39.375 9.40078 35.5992 5.625 30.9375 5.625C29.7141 5.625 28.5609 5.88516 27.5133 6.34922C25.3406 3.83906 22.1414 2.25 18.5625 2.25C12.0375 2.25 6.75 7.5375 6.75 14.0625V14.0766C2.81953 15.4688 0 19.2164 0 23.625C0 29.2148 4.53516 33.75 10.125 33.75H32.625H35.4375H36ZM12.375 15.1875V16.3125C12.375 17.8664 13.6336 19.125 15.1875 19.125H16.3125C17.8664 19.125 19.125 17.8664 19.125 16.3125V15.1875C19.125 13.6336 17.8664 12.375 16.3125 12.375H15.1875C13.6336 12.375 12.375 13.6336 12.375 15.1875ZM15.1875 14.625H16.3125C16.6219 14.625 16.875 14.8781 16.875 15.1875V16.3125C16.875 16.6219 16.6219 16.875 16.3125 16.875H15.1875C14.8781 16.875 14.625 16.6219 14.625 16.3125V15.1875C14.625 14.8781 14.8781 14.625 15.1875 14.625ZM20.25 13.5C20.25 14.1187 20.7563 14.625 21.375 14.625V18C21.375 18.6187 21.8813 19.125 22.5 19.125C23.1187 19.125 23.625 18.6187 23.625 18V13.5C23.625 12.8813 23.1187 12.375 22.5 12.375H21.375C20.7563 12.375 20.25 12.8813 20.25 13.5ZM28.6875 12.375C27.1336 12.375 25.875 13.6336 25.875 15.1875V16.3125C25.875 17.8664 27.1336 19.125 28.6875 19.125H29.8125C31.3664 19.125 32.625 17.8664 32.625 16.3125V15.1875C32.625 13.6336 31.3664 12.375 29.8125 12.375H28.6875ZM28.125 15.1875C28.125 14.8781 28.3781 14.625 28.6875 14.625H29.8125C30.1219 14.625 30.375 14.8781 30.375 15.1875V16.3125C30.375 16.6219 30.1219 16.875 29.8125 16.875H28.6875C28.3781 16.875 28.125 16.6219 28.125 16.3125V15.1875ZM13.5 22.5C13.5 23.1187 14.0063 23.625 14.625 23.625V27C14.625 27.6187 15.1313 28.125 15.75 28.125C16.3687 28.125 16.875 27.6187 16.875 27V22.5C16.875 21.8813 16.3687 21.375 15.75 21.375H14.625C14.0063 21.375 13.5 21.8813 13.5 22.5ZM19.125 24.1875V25.3125C19.125 26.8664 20.3836 28.125 21.9375 28.125H23.0625C24.6164 28.125 25.875 26.8664 25.875 25.3125V24.1875C25.875 22.6336 24.6164 21.375 23.0625 21.375H21.9375C20.3836 21.375 19.125 22.6336 19.125 24.1875ZM21.9375 23.625H23.0625C23.3719 23.625 23.625 23.8781 23.625 24.1875V25.3125C23.625 25.6219 23.3719 25.875 23.0625 25.875H21.9375C21.6281 25.875 21.375 25.6219 21.375 25.3125V24.1875C21.375 23.8781 21.6281 23.625 21.9375 23.625ZM28.125 21.375C27.5063 21.375 27 21.8813 27 22.5C27 23.1187 27.5063 23.625 28.125 23.625V27C28.125 27.6187 28.6313 28.125 29.25 28.125C29.8687 28.125 30.375 27.6187 30.375 27V22.5C30.375 21.8813 29.8687 21.375 29.25 21.375H28.125Z" fill="#1E40AE"/>
</svg>
