<svg width="31" height="32" viewBox="0 0 31 32" fill="none" xmlns="http://www.w3.org/2000/svg">
<path d="M12.0727 14.3688C12.1476 14.3691 12.221 14.3472 12.2836 14.306C12.3461 14.2647 12.3951 14.2058 12.4242 14.1367C12.5795 13.4491 12.9458 12.8271 13.4719 12.3578C13.5563 12.3016 13.5914 12.182 13.5914 12.0695C13.5875 12.0218 13.572 11.9757 13.5462 11.9353C13.5205 11.8949 13.4853 11.8613 13.4438 11.8375L5.23126 7.03516L10.4766 3.97656C10.5803 3.91757 10.6671 3.83291 10.7286 3.73072C10.7902 3.62852 10.8245 3.51222 10.8281 3.39297C10.8305 3.27246 10.7987 3.15374 10.7365 3.05049C10.6743 2.94724 10.5842 2.86366 10.4766 2.80938L8.90157 1.90938C8.79958 1.85209 8.68457 1.822 8.56759 1.822C8.45061 1.822 8.3356 1.85209 8.2336 1.90938L1.18829 5.9875C1.08459 6.04649 0.997794 6.13115 0.93623 6.23335C0.874667 6.33554 0.840403 6.45185 0.836727 6.57109V14.6641C0.834408 14.7846 0.866177 14.9033 0.928375 15.0065C0.990573 15.1098 1.08067 15.1934 1.18829 15.2477L2.75626 16.1477C2.86243 16.2102 2.98485 16.2395 3.10782 16.232C3.27947 16.2359 3.4459 16.1729 3.57188 16.0563C3.69706 15.9222 3.76949 15.7474 3.77579 15.5641V9.56641L11.932 14.3406C11.9761 14.3606 12.0243 14.3703 12.0727 14.3688ZM22.732 24.557C22.6103 24.5605 22.4906 24.5892 22.3805 24.6414L17.1422 27.6719V18.243C17.1422 18.0391 16.9383 17.8352 16.7063 17.9195C16.0424 18.1183 15.3363 18.1281 14.6672 17.9477C14.6168 17.9338 14.5638 17.9315 14.5124 17.9411C14.461 17.9508 14.4124 17.9719 14.3704 18.0031C14.3284 18.0343 14.294 18.0746 14.2699 18.1211C14.2458 18.1675 14.2326 18.2188 14.2313 18.2711V27.6438L8.99298 24.6133C8.8868 24.5508 8.76439 24.5214 8.64142 24.5289C8.46483 24.5307 8.29599 24.6017 8.17111 24.7266C8.04624 24.8514 7.97528 25.0203 7.97345 25.1969V27.032C7.97113 27.1525 8.0029 27.2713 8.06509 27.3745C8.12729 27.4778 8.21739 27.5613 8.32501 27.6156L15.3703 31.6656C15.4745 31.7268 15.5942 31.7561 15.7149 31.75C15.8371 31.75 15.9575 31.7211 16.0664 31.6656L23.1117 27.6156C23.2154 27.5566 23.3022 27.472 23.3638 27.3698C23.4254 27.2676 23.4596 27.1513 23.4633 27.032V25.1969C23.4 24.8805 23.0766 24.557 22.732 24.557ZM20.1094 3.48438C20.4292 3.48438 20.7419 3.38953 21.0078 3.21183C21.2738 3.03413 21.4811 2.78156 21.6035 2.48606C21.7259 2.19056 21.7579 1.86539 21.6955 1.55169C21.6331 1.23799 21.4791 0.949832 21.2529 0.723664C21.0267 0.497496 20.7386 0.343474 20.4249 0.281075C20.1112 0.218675 19.786 0.250701 19.4905 0.373102C19.195 0.495503 18.9424 0.702782 18.7647 0.968727C18.587 1.23467 18.4922 1.54734 18.4922 1.86719C18.4922 2.29609 18.6626 2.70743 18.9659 3.01071C19.2691 3.31399 19.6805 3.48438 20.1094 3.48438ZM24.5813 2.77422C24.2614 2.77422 23.9487 2.86907 23.6828 3.04676C23.4169 3.22446 23.2096 3.47703 23.0872 3.77254C22.9648 4.06804 22.9327 4.3932 22.9951 4.7069C23.0575 5.02061 23.2116 5.30876 23.4377 5.53493C23.6639 5.7611 23.9521 5.91512 24.2658 5.97752C24.5795 6.03992 24.9046 6.00789 25.2001 5.88549C25.4956 5.76309 25.7482 5.55581 25.9259 5.28987C26.1036 5.02392 26.1984 4.71126 26.1984 4.39141C26.1984 3.9625 26.0281 3.55116 25.7248 3.24788C25.4215 2.9446 25.0102 2.77422 24.5813 2.77422ZM29.025 8.65938C29.3449 8.65938 29.6575 8.56453 29.9235 8.38683C30.1894 8.20913 30.3967 7.95656 30.5191 7.66106C30.6415 7.36556 30.6735 7.04039 30.6111 6.72669C30.5487 6.41299 30.3947 6.12483 30.1685 5.89866C29.9424 5.6725 29.6542 5.51847 29.3405 5.45607C29.0268 5.39367 28.7016 5.4257 28.4061 5.5481C28.1106 5.6705 27.8581 5.87778 27.6804 6.14373C27.5027 6.40967 27.4078 6.72234 27.4078 7.04219C27.4078 7.47109 27.5782 7.88243 27.8815 8.18571C28.1848 8.48899 28.5961 8.65938 29.025 8.65938ZM24.5813 8.0125C24.2614 8.0125 23.9487 8.10735 23.6828 8.28505C23.4169 8.46274 23.2096 8.71531 23.0872 9.01082C22.9648 9.30632 22.9327 9.63148 22.9951 9.94519C23.0575 10.2589 23.2116 10.547 23.4377 10.7732C23.6639 10.9994 23.9521 11.1534 24.2658 11.2158C24.5795 11.2782 24.9046 11.2462 25.2001 11.1238C25.4956 11.0014 25.7482 10.7941 25.9259 10.5281C26.1036 10.2622 26.1984 9.94954 26.1984 9.62969C26.1984 9.20078 26.0281 8.78945 25.7248 8.48616C25.4215 8.18288 25.0102 8.0125 24.5813 8.0125ZM20.1094 13.8625C20.4292 13.8625 20.7419 13.7677 21.0078 13.59C21.2738 13.4123 21.4811 13.1597 21.6035 12.8642C21.7259 12.5687 21.7579 12.2435 21.6955 11.9298C21.6331 11.6161 21.4791 11.328 21.2529 11.1018C21.0267 10.8756 20.7386 10.7216 20.4249 10.6592C20.1112 10.5968 19.786 10.6288 19.4905 10.7512C19.195 10.8736 18.9424 11.0809 18.7647 11.3469C18.587 11.6128 18.4922 11.9255 18.4922 12.2453C18.4922 12.6742 18.6626 13.0856 18.9659 13.3888C19.2691 13.6921 19.6805 13.8625 20.1094 13.8625ZM15.743 16.4219C16.0628 16.4219 16.3755 16.327 16.6414 16.1493C16.9074 15.9716 17.1147 15.7191 17.2371 15.4236C17.3595 15.1281 17.3915 14.8029 17.3291 14.4892C17.2667 14.1755 17.1127 13.8873 16.8865 13.6612C16.6603 13.435 16.3722 13.281 16.0585 13.2186C15.7448 13.1562 15.4196 13.1882 15.1241 13.3106C14.8286 13.433 14.576 13.6403 14.3983 13.9062C14.2206 14.1722 14.1258 14.4848 14.1258 14.8047C14.1258 15.2336 14.2962 15.6449 14.5995 15.9482C14.9027 16.2515 15.3141 16.4219 15.743 16.4219ZM29.025 10.6281C28.7052 10.6281 28.3925 10.723 28.1265 10.9007C27.8606 11.0784 27.6533 11.3309 27.5309 11.6264C27.4085 11.9219 27.3765 12.2471 27.4389 12.5608C27.5013 12.8745 27.6553 13.1627 27.8815 13.3888C28.1077 13.615 28.3958 13.769 28.7095 13.8314C29.0232 13.8938 29.3484 13.8618 29.6439 13.7394C29.9394 13.617 30.192 13.4097 30.3696 13.1438C30.5473 12.8778 30.6422 12.5652 30.6422 12.2453C30.6422 11.8164 30.4718 11.4051 30.1685 11.1018C29.8653 10.7985 29.4539 10.6281 29.025 10.6281ZM29.025 15.7117C28.7052 15.7117 28.3925 15.8066 28.1265 15.9843C27.8606 16.162 27.6533 16.4145 27.5309 16.71C27.4085 17.0055 27.3765 17.3307 27.4389 17.6444C27.5013 17.9581 27.6553 18.2463 27.8815 18.4724C28.1077 18.6986 28.3958 18.8526 28.7095 18.915C29.0232 18.9774 29.3484 18.9454 29.6439 18.823C29.9394 18.7006 30.192 18.4933 30.3696 18.2274C30.5473 17.9614 30.6422 17.6488 30.6422 17.3289C30.6422 16.9 30.4718 16.4887 30.1685 16.1854C29.8653 15.8821 29.4539 15.7117 29.025 15.7117Z" fill="#1E40AE"/>
</svg>
