<svg width="32" height="36" viewBox="0 0 32 36" fill="none" xmlns="http://www.w3.org/2000/svg">
<path d="M15.75 14.625C17.2418 14.625 18.6726 14.0324 19.7275 12.9775C20.7824 11.9226 21.375 10.4918 21.375 9C21.375 7.50816 20.7824 6.07742 19.7275 5.02252C18.6726 3.96763 17.2418 3.375 15.75 3.375C14.2582 3.375 12.8274 3.96763 11.7725 5.02252C10.7176 6.07742 10.125 7.50816 10.125 9C10.125 10.4918 10.7176 11.9226 11.7725 12.9775C12.8274 14.0324 14.2582 14.625 15.75 14.625ZM24.75 9C24.75 11.3869 23.8018 13.6761 22.114 15.364C20.4261 17.0518 18.1369 18 15.75 18C13.3631 18 11.0739 17.0518 9.38604 15.364C7.69821 13.6761 6.75 11.3869 6.75 9C6.75 6.61305 7.69821 4.32387 9.38604 2.63604C11.0739 0.948212 13.3631 0 15.75 0C18.1369 0 20.4261 0.948212 22.114 2.63604C23.8018 4.32387 24.75 6.61305 24.75 9ZM14.7023 25.2563L13.3945 23.0766C12.9445 22.3242 13.4859 21.375 14.3578 21.375H15.743H17.1281C18 21.375 18.5414 22.3313 18.0914 23.0766L16.7836 25.2563L17.9016 29.4187L20.9812 23.2594C21.1922 22.8375 21.6422 22.5914 22.0992 22.6687C27.45 23.5969 31.5 28.2445 31.5 33.8414C31.5 35.0367 30.5297 36 29.3414 36H2.15859C0.970313 36 0 35.0297 0 33.8414C0 28.2445 4.05 23.5969 9.38672 22.6687C9.85078 22.5914 10.2937 22.8375 10.5047 23.2594L13.5844 29.4187L14.7023 25.2563ZM8.33203 26.4586C5.78672 27.4992 3.89531 29.8266 3.46641 32.625H11.4117L8.33203 26.4586ZM20.0883 32.625H28.0336C27.6047 29.8266 25.7133 27.4992 23.168 26.4586L20.0883 32.625Z" fill="#1E40AE"/>
</svg>
