<svg width="32" height="36" viewBox="0 0 32 36" fill="none" xmlns="http://www.w3.org/2000/svg">
<g clip-path="url(#clip0_0_342)">
<path d="M28.125 6.04688V12.2836C27.1898 12.7898 25.9031 13.282 24.2719 13.6828C21.8883 14.2734 18.9492 14.625 15.75 14.625C12.5508 14.625 9.61172 14.2734 7.22813 13.6828C5.59688 13.282 4.31016 12.7969 3.375 12.2836V6.04688L3.41719 6.01172C3.78984 5.69531 4.53516 5.25938 5.75156 4.82344C8.14922 3.97266 11.6859 3.375 15.75 3.375C19.8141 3.375 23.3508 3.97266 25.7484 4.82344C26.9648 5.25938 27.7031 5.69531 28.0828 6.01172L28.125 6.04688ZM28.125 15.9961V21.2836C27.1898 21.7898 25.9031 22.282 24.2719 22.6828C21.8883 23.2734 18.9492 23.625 15.75 23.625C12.5508 23.625 9.61172 23.2734 7.22813 22.6828C5.59688 22.282 4.31016 21.7969 3.375 21.2836V15.9961C4.31016 16.3687 5.33672 16.6922 6.41953 16.9594C9.10547 17.6203 12.3188 18 15.75 18C19.1812 18 22.3945 17.6203 25.0805 16.9594C26.1633 16.6922 27.1898 16.3758 28.125 15.9961ZM3.375 29.9531V25.0031C4.31016 25.3758 5.33672 25.6992 6.41953 25.9664C9.10547 26.6203 12.3188 27 15.75 27C19.1812 27 22.3945 26.6203 25.0805 25.9594C26.1633 25.6922 27.1898 25.3758 28.125 24.9961V29.9461L28.0828 29.9812C27.7102 30.2977 26.9648 30.7336 25.7484 31.1695C23.3508 32.0273 19.8141 32.625 15.75 32.625C11.6859 32.625 8.14922 32.0273 5.75156 31.1766C4.53516 30.7406 3.79688 30.3047 3.41719 29.9883L3.375 29.9531ZM28.2727 29.8055C28.2727 29.8055 28.2727 29.8125 28.2586 29.8195L28.2656 29.8055C28.2656 29.8055 28.2656 29.8055 28.2656 29.7984L28.2727 29.8055ZM3.23438 29.8055C3.23438 29.8055 3.23438 29.8125 3.24844 29.8195C3.24141 29.8125 3.24141 29.8055 3.23438 29.8055ZM28.2656 6.18047C28.2727 6.1875 28.2797 6.19453 28.2797 6.19453C28.2797 6.19453 28.2797 6.1875 28.2656 6.18047ZM31.5 30.375V5.625C31.5 2.51719 24.4477 0 15.75 0C7.05234 0 0 2.51719 0 5.625V30.375C0 33.4828 7.05234 36 15.75 36C24.4477 36 31.5 33.4828 31.5 30.375Z" fill="#1E40AE"/>
</g>
<defs>
<clipPath id="clip0_0_342">
<rect width="31.5" height="36" fill="white"/>
</clipPath>
</defs>
</svg>
