<svg width="46" height="36" viewBox="0 0 46 36" fill="none" xmlns="http://www.w3.org/2000/svg">
<g clip-path="url(#clip0_75_31)">
<path d="M8.375 5.625H37.625V22.5H41V5.625V2.25H37.625H8.375H5V5.625V22.5H8.375V5.625ZM4.14922 28.125H41.8508L39.6008 30.375H6.39922L4.14922 28.125ZM45.5 29.25V28.125V24.75H42.125H3.875H0.5V28.125V29.25L5 33.75H41L45.5 29.25ZM20.2578 12.4453L21.4531 11.25L19.0625 8.86641L17.8672 10.0617L14.4922 13.4367L13.2969 14.632L14.4922 15.8273L17.8672 19.2023L19.0625 20.3977L21.4461 18L20.2508 16.8047L18.0711 14.625L20.2508 12.4453H20.2578ZM28.1328 10.0547L26.9375 8.85938L24.5539 11.25L25.7492 12.4453L27.9289 14.625L25.7492 16.8047L24.5539 18L26.9375 20.3836L28.1328 19.1883L31.5078 15.8133L32.7031 14.618L31.5078 13.4227L28.1328 10.0477V10.0547Z" fill="#1E40AF"/>
</g>
<defs>
<clipPath id="clip0_75_31">
<rect width="45" height="36" fill="white" transform="translate(0.5)"/>
</clipPath>
</defs>
</svg>
